<?xml version="1.0" encoding="utf-8"?>
<!-- Generator: Adobe Illustrator 16.0.0, SVG Export Plug-In . SVG Version: 6.00 Build 0)  -->
<!DOCTYPE svg PUBLIC "-//W3C//DTD SVG 1.0//EN" "http://www.w3.org/TR/2001/REC-SVG-20010904/DTD/svg10.dtd">
<svg version="1.0" id="Layer_1" xmlns="http://www.w3.org/2000/svg" xmlns:xlink="http://www.w3.org/1999/xlink" x="0px" y="0px"
	 width="100px" height="100px" viewBox="0 0 100 100" enable-background="new 0 0 100 100" xml:space="preserve">
<polygon points="89.999,17.07 82.936,10 66.699,21.598 63.121,18.021 43.911,31.803 68.196,56.09 81.979,36.875 78.408,33.304 "/>
<path d="M38.418,35.742L21.95,47.558l30.491,30.488l11.813-16.468L38.418,35.742z M48.981,65.159L34.839,51.019l4.714-4.713
	l14.142,14.14L48.981,65.159z"/>
<path d="M16.459,51.494l-2.834,2.037c-4.422,3.271-4.858,9.131-0.972,13.018l9.429,9.431l1.942,1.937l9.427,9.43
	c3.888,3.891,9.748,3.451,13.014-0.97l2.035-2.835L16.459,51.494z"/>
</svg>
