<?xml version="1.0" encoding="utf-8"?>
<!-- Generator: Adobe Illustrator 16.0.0, SVG Export Plug-In . SVG Version: 6.00 Build 0)  -->
<!DOCTYPE svg PUBLIC "-//W3C//DTD SVG 1.0//EN" "http://www.w3.org/TR/2001/REC-SVG-20010904/DTD/svg10.dtd">
<svg version="1.0" id="Layer_1" xmlns="http://www.w3.org/2000/svg" xmlns:xlink="http://www.w3.org/1999/xlink" x="0px" y="0px"
	 width="100px" height="100px" viewBox="0 0 100 100" enable-background="new 0 0 100 100" xml:space="preserve">
<path d="M63.334,30v-6.667c0-3.678-2.982-6.666-6.668-6.666h-3.333V10h-6.666v6.667h-3.333c-3.68,0-6.668,2.984-6.668,6.666V30
	h-9.999v6.666h46.666V30H63.334z"/>
<path d="M76.667,43.332H70v0.046c-0.007-0.017-0.017-0.029-0.022-0.046H30.022c-0.01,0.017-0.016,0.029-0.022,0.046v-0.046h-6.667
	C15.97,43.332,10,49.303,10,56.665v6.667c0,7.359,5.97,13.332,13.333,13.332c0,7.363,5.971,13.333,13.333,13.333L63.334,90
	c7.362,0,13.333-5.97,13.333-13.332v-0.004C84.03,76.664,90,70.691,90,63.332v-6.667C90,49.303,84.03,43.332,76.667,43.332z
	 M23.333,69.998c-3.679,0-6.667-2.988-6.667-6.666v-6.667c0-3.682,2.985-6.666,6.667-6.666h3.669
	C24.642,56.22,23.333,62.951,23.333,69.998z M43.334,49.999h13.332v6.666H43.334V49.999z M56.666,83.331H43.334v-6.667h13.332
	V83.331z M63.334,69.998H36.666v-6.666h26.668V69.998z M83.334,63.332c0,3.678-2.988,6.666-6.667,6.666
	c0-7.044-1.309-13.778-3.669-19.999h3.669c3.681,0,6.667,2.984,6.667,6.666V63.332z"/>
</svg>
