<?xml version="1.0" encoding="utf-8"?>
<!-- Generator: Adobe Illustrator 16.0.0, SVG Export Plug-In . SVG Version: 6.00 Build 0)  -->
<!DOCTYPE svg PUBLIC "-//W3C//DTD SVG 1.0//EN" "http://www.w3.org/TR/2001/REC-SVG-20010904/DTD/svg10.dtd">
<svg version="1.0" id="Layer_1" xmlns="http://www.w3.org/2000/svg" xmlns:xlink="http://www.w3.org/1999/xlink" x="0px" y="0px"
	 width="100px" height="100px" viewBox="0 0 100 100" enable-background="new 0 0 100 100" xml:space="preserve">
<path d="M58.333,16.667h-5V10h-6.667v6.667h-5L35,30c9.999,4.613,20.735,4.271,30,0L58.333,16.667z"/>
<path d="M67.224,36.279C61.712,38.73,55.918,40,49.98,40c-5.917,0-11.698-1.27-17.204-3.717c-1.631,5.423-2.552,11.146-2.712,17.05
	h13.269V60H30v10h13.333v6.667H30V80c0,5.524,8.947,10,20,10c11.055,0,20-4.476,20-10V55.062C70,48.539,69.017,42.236,67.224,36.279
	z"/>
</svg>
