<?xml version="1.0" encoding="utf-8"?>
<!-- Generator: Adobe Illustrator 16.0.0, SVG Export Plug-In . SVG Version: 6.00 Build 0)  -->
<!DOCTYPE svg PUBLIC "-//W3C//DTD SVG 1.0//EN" "http://www.w3.org/TR/2001/REC-SVG-20010904/DTD/svg10.dtd">
<svg version="1.0" id="Layer_1" xmlns="http://www.w3.org/2000/svg" xmlns:xlink="http://www.w3.org/1999/xlink" x="0px" y="0px"
	 width="100px" height="100px" viewBox="0 0 100 100" enable-background="new 0 0 100 100" xml:space="preserve">
<path d="M36.667,26.667v-3.333c0-1.833-1.5-3.333-3.333-3.333H30v-6.667h-6.667V20H20c-1.833,0-3.333,1.5-3.333,3.333v3.333
	C13,26.667,10,29.668,10,33.333h33.333C43.333,29.668,40.332,26.667,36.667,26.667z"/>
<path d="M83.333,26.667v-3.333C83.333,21.5,81.833,20,80,20h-3.333v-6.667H70V20h-3.333c-1.833,0-3.334,1.5-3.334,3.333v3.333
	c-3.665,0-6.666,3.001-6.666,6.667H90C90,29.668,86.999,26.667,83.333,26.667z"/>
<path d="M63.333,76.667h20C86.999,76.667,90,73.665,90,70V40H53.333V10h-6.667v30H10v30c0,3.665,3,6.667,6.667,6.667h20
	c3.666,0,6.667-3.002,6.667-6.667V46.667h3.333v36.667H10V90h80v-6.667H53.333V46.667h3.334V70
	C56.667,73.665,59.668,76.667,63.333,76.667z"/>
</svg>
