<?xml version="1.0" encoding="utf-8"?>
<!-- Generator: Adobe Illustrator 16.0.0, SVG Export Plug-In . SVG Version: 6.00 Build 0)  -->
<!DOCTYPE svg PUBLIC "-//W3C//DTD SVG 1.0//EN" "http://www.w3.org/TR/2001/REC-SVG-20010904/DTD/svg10.dtd">
<svg version="1.0" id="Layer_1" xmlns="http://www.w3.org/2000/svg" xmlns:xlink="http://www.w3.org/1999/xlink" x="0px" y="0px"
	 width="100px" height="100px" viewBox="0 0 100 100" enable-background="new 0 0 100 100" xml:space="preserve">
<path d="M83.671,55c-2.562-6.172-2.767-13.337,0-20c-16.481,6.413-35.556,6.917-53.336,0c1.133,2.728,1.741,5.541,1.92,8.333h-8.921
	c-5.521,0-10,4.479-10,10l-0.001,13.333c0,5.521,4.478,10,10,10h4.611c0.487,2.803,1.258,5.596,2.391,8.334
	c17.78,6.917,36.854,6.412,53.336,0C87.812,75.003,87.516,64.261,83.671,55z M27.353,70h-4.02C21.495,70,20,68.506,20,66.666
	l0.001-13.333c0-1.836,1.496-3.333,3.333-3.333h8.502c-0.337,1.715-0.835,3.392-1.502,5C28.378,59.713,27.353,64.811,27.353,70z
	 M67.004,76.666H47.005V70h19.999V76.666z M67.004,60H47.005v-6.667h19.999V60z"/>
<path d="M75.52,22.773C74.504,21.25,72.17,20,70.338,20h-10V10h-6.667v10H43.668c-1.833,0-4.165,1.25-5.182,2.773l-4.325,6.488
	c7.336,2.669,14.996,4.072,22.817,4.072c7.854,0,15.53-1.403,22.864-4.072L75.52,22.773z"/>
</svg>
