<?xml version="1.0" encoding="utf-8"?>
<!-- Generator: Adobe Illustrator 16.0.0, SVG Export Plug-In . SVG Version: 6.00 Build 0)  -->
<!DOCTYPE svg PUBLIC "-//W3C//DTD SVG 1.0//EN" "http://www.w3.org/TR/2001/REC-SVG-20010904/DTD/svg10.dtd">
<svg version="1.0" id="Layer_1" xmlns="http://www.w3.org/2000/svg" xmlns:xlink="http://www.w3.org/1999/xlink" x="0px" y="0px"
	 width="100px" height="100px" viewBox="0 0 100 100" enable-background="new 0 0 100 100" xml:space="preserve">
<path d="M68.153,40.008L49.931,21.785c-2.594-2.591-6.837-2.594-9.427,0l-18.221,18.22L68.153,40.008z"/>
<path d="M45.218,78.355l4.713-4.714l7.067,7.071l4.717-4.715l-7.07-7.07l4.713-4.72l7.07,7.076l4.717-4.713l-7.07-7.077l4.714-4.714
	l7.07,7.07l2.354-2.35c2.598-2.598,2.595-6.843,0.003-9.434l-3.399-3.399H15.614l-3.67,3.672c-2.591,2.598-2.593,6.836,0,9.434
	l28.285,28.282c2.593,2.591,6.834,2.591,9.426,0l2.629-2.631L45.218,78.355z"/>
<path d="M82.93,35.925c4.388-4.391,5.029-11.061,2.021-16.165L90,14.711L85.286,10l-5.045,5.046
	c-5.112-3.008-11.782-2.363-16.167,2.025c-2.594-2.598-6.836-2.591-9.427,0L82.93,45.353C85.521,42.762,85.521,38.517,82.93,35.925z
	"/>
</svg>
