<?xml version="1.0" encoding="utf-8"?>
<!-- Generator: Adobe Illustrator 16.0.0, SVG Export Plug-In . SVG Version: 6.00 Build 0)  -->
<!DOCTYPE svg PUBLIC "-//W3C//DTD SVG 1.0//EN" "http://www.w3.org/TR/2001/REC-SVG-20010904/DTD/svg10.dtd">
<svg version="1.0" id="Layer_1" xmlns="http://www.w3.org/2000/svg" xmlns:xlink="http://www.w3.org/1999/xlink" x="0px" y="0px"
	 width="100px" height="100px" viewBox="0 0 100 100" enable-background="new 0 0 100 100" xml:space="preserve">
<path d="M80,36.667V30h-6.667c0-3.666-3.001-6.667-6.666-6.667h-3.334L60,16.667h-6.667V10h-6.667v6.667H40l-3.334,6.667h-3.333
	c-3.667,0-6.667,3.001-6.667,6.667H20v6.667H80z"/>
<path d="M80,50h-6.667v-6.667H26.666V50H20c-3.667,0-6.667,3.001-6.667,6.667v16.666c0,3.666,3,6.667,6.667,6.667h6.666v3.333
	c0,3.666,3,6.667,6.667,6.667h33.334c3.665,0,6.666-3.001,6.666-6.667V80H80c3.665,0,6.667-3.001,6.667-6.667V56.667
	C86.667,53.001,83.665,50,80,50z M26.666,73.333H20V56.667h6.666V73.333z M61.546,73.333c-0.879,1.521-3.75,1.641-7.359,0.586
	C53.294,77.571,51.755,80,50,80s-3.295-2.429-4.187-6.081c-3.611,1.055-6.481,0.935-7.36-0.586c-0.879-1.52,0.453-4.065,3.173-6.666
	c-2.717-2.598-4.052-5.144-3.174-6.664c0.877-1.52,3.75-1.637,7.361-0.582c0.889-3.659,2.429-6.088,4.187-6.088
	s3.294,2.426,4.189,6.084c3.606-1.055,6.478-0.938,7.356,0.583s-0.459,4.069-3.174,6.667C61.091,69.268,62.422,71.813,61.546,73.333
	z M80,73.333h-6.667V56.667H80V73.333z"/>
<circle cx="50" cy="66.667" r="3.333"/>
</svg>
