<?xml version="1.0" encoding="utf-8"?>
<!-- Generator: Adobe Illustrator 16.0.0, SVG Export Plug-In . SVG Version: 6.00 Build 0)  -->
<!DOCTYPE svg PUBLIC "-//W3C//DTD SVG 1.0//EN" "http://www.w3.org/TR/2001/REC-SVG-20010904/DTD/svg10.dtd">
<svg version="1.0" id="Layer_1" xmlns="http://www.w3.org/2000/svg" xmlns:xlink="http://www.w3.org/1999/xlink" x="0px" y="0px"
	 width="100px" height="100px" viewBox="0 0 100 100" enable-background="new 0 0 100 100" xml:space="preserve">
<path d="M44.544,27.168l-7.066,7.07L56.331,53.09l-4.713,4.721L32.761,38.953l-4.714,4.717l9.427,9.427l-4.713,4.71l-9.428-9.424
	l-4.713,4.714l18.854,18.854l-4.713,4.713L13.906,57.811c-5.208,5.205-5.208,13.648,0,18.857l9.427,9.427
	c5.209,5.205,13.646,5.208,18.854,0l30.645-30.642L44.544,27.168z"/>
<path d="M83.33,23.333c3.685,0,6.67-2.984,6.67-6.67C90,12.982,87.019,10,83.333,10c-3.682,0-6.666,2.981-6.666,6.667
	c0,1.842-0.746,3.509-1.953,4.713l-1.479,1.475l-7.474-7.474l-8.841,5.303l-6.481-6.478l-4.717,4.713l35.358,35.356l4.713-4.714
	l-6.48-6.481l5.303-8.841l-7.475-7.474l1.479-1.479C79.827,24.08,81.494,23.333,83.33,23.333z"/>
</svg>
