<?xml version="1.0" encoding="utf-8"?>
<!-- Generator: Adobe Illustrator 16.0.0, SVG Export Plug-In . SVG Version: 6.00 Build 0)  -->
<!DOCTYPE svg PUBLIC "-//W3C//DTD SVG 1.0//EN" "http://www.w3.org/TR/2001/REC-SVG-20010904/DTD/svg10.dtd">
<svg version="1.0" id="Layer_1" xmlns="http://www.w3.org/2000/svg" xmlns:xlink="http://www.w3.org/1999/xlink" x="0px" y="0px"
	 width="100px" height="100px" viewBox="0 0 100 100" enable-background="new 0 0 100 100" xml:space="preserve">
<polygon points="40.426,23.333 45.279,10 38.187,10 33.333,23.333 "/>
<polygon points="55.146,23.333 60,10 52.907,10 48.053,23.333 "/>
<path d="M80,50.361h-6.667c-7.229,4.505-19.183,6.306-30,6.306s-22.771-1.801-30-6.306V80c0,5.521,13.431,10,30,10
	c16.566,0,30-4.479,30-10v-2.972H80c3.679,0,6.667-2.982,6.667-6.667V57.028C86.667,53.347,83.682,50.361,80,50.361z M80,70.361
	h-6.667V57.028H80V70.361z"/>
<ellipse cx="43.333" cy="40" rx="30" ry="10"/>
</svg>
