<?xml version="1.0" encoding="utf-8"?>
<!-- Generator: Adobe Illustrator 16.0.0, SVG Export Plug-In . SVG Version: 6.00 Build 0)  -->
<!DOCTYPE svg PUBLIC "-//W3C//DTD SVG 1.0//EN" "http://www.w3.org/TR/2001/REC-SVG-20010904/DTD/svg10.dtd">
<svg version="1.0" id="Layer_1" xmlns="http://www.w3.org/2000/svg" xmlns:xlink="http://www.w3.org/1999/xlink" x="0px" y="0px"
	 width="100px" height="100px" viewBox="0 0 100 100" enable-background="new 0 0 100 100" xml:space="preserve">
<polygon points="54.453,23.333 59.307,10 52.214,10 47.36,23.333 "/>
<polygon points="71.813,23.333 76.667,10 69.573,10 64.72,23.333 "/>
<polygon points="37.093,23.333 41.947,10 34.854,10 30,23.333 "/>
<path d="M50,63.333c-15.321,0-30.687-2.711-39.404-8.506c1.429,10.59,5.547,20.329,11.67,28.496C30.059,87.578,39.496,90,50,90
	c10.505,0,19.941-2.422,27.731-6.673c6.126-8.171,10.244-17.907,11.673-28.5C80.687,60.622,65.319,63.333,50,63.333z"/>
<path d="M90,43.333c0,7.363-17.913,13.333-40,13.333c-22.09,0-40-5.971-40-13.333C10,35.97,27.91,30,50,30
	C72.087,30,90,35.97,90,43.333z"/>
</svg>
