<?xml version="1.0" encoding="utf-8"?>
<!-- Generator: Adobe Illustrator 16.0.0, SVG Export Plug-In . SVG Version: 6.00 Build 0)  -->
<!DOCTYPE svg PUBLIC "-//W3C//DTD SVG 1.0//EN" "http://www.w3.org/TR/2001/REC-SVG-20010904/DTD/svg10.dtd">
<svg version="1.0" id="Layer_1" xmlns="http://www.w3.org/2000/svg" xmlns:xlink="http://www.w3.org/1999/xlink" x="0px" y="0px"
	 width="100px" height="100px" viewBox="0 0 100 100" enable-background="new 0 0 100 100" xml:space="preserve">
<rect x="10" y="20" width="73.333" height="6.667"/>
<path d="M83.333,40h-6.666v-6.667h-60v33.334C16.667,74.026,22.637,80,30,80h33.333c7.36,0,13.334-5.97,13.334-13.333h6.666
	C87.012,66.667,90,63.682,90,60V46.667C90,42.988,87.015,40,83.333,40z M46.667,68.665c-5.524,0-10-4.476-10-10
	c0-2.757,1.116-5.257,2.93-7.07l7.07-6.927l7.07,6.927c1.813,1.813,2.93,4.313,2.93,7.07C56.667,64.189,52.188,68.665,46.667,68.665
	z M83.333,60h-6.666V46.667h6.666V60z"/>
</svg>
